<svg xmlns="http://www.w3.org/2000/svg" width="1312.486" height="1158.565" viewBox="0 0 1312.486 1158.565">
  <g id="Groupe_5" data-name="Groupe 5" transform="translate(-303.471 -48)">
    <g id="Groupe_3" data-name="Groupe 3" transform="translate(0 18)">
      <g id="Groupe_4" data-name="Groupe 4">
        <ellipse id="Ellipse_9" data-name="Ellipse 9" cx="500" cy="502" rx="500" ry="502" transform="translate(460 30)" fill="#e2474b"/>
        <path id="Soustraction_1" data-name="Soustraction 1" d="M500,1000a507.987,507.987,0,0,1-51.122-2.582,501.26,501.26,0,0,1-49.645-7.577c-16.109-3.3-32.23-7.442-47.917-12.321-15.511-4.825-30.967-10.482-45.938-16.814-14.833-6.274-29.538-13.358-43.707-21.055-14.069-7.643-27.94-16.069-41.225-25.045-13.221-8.932-26.171-18.616-38.492-28.784-12.29-10.143-24.236-21-35.507-32.271s-22.129-23.218-32.271-35.507c-10.166-12.318-19.851-25.269-28.784-38.492-8.975-13.286-17.4-27.156-25.045-41.225-7.7-14.17-14.782-28.875-21.055-43.707C32.961,679.652,27.3,664.2,22.479,648.685,17.6,633,13.455,616.876,10.158,600.768a501.263,501.263,0,0,1-7.577-49.645,507.482,507.482,0,0,1,0-102.244,501.261,501.261,0,0,1,7.577-49.645c3.3-16.109,7.442-32.231,12.321-47.917C27.3,335.8,32.961,320.348,39.293,305.378c6.273-14.832,13.357-29.537,21.055-43.707,7.643-14.069,16.069-27.939,25.045-41.225,8.933-13.223,18.617-26.173,28.784-38.492,10.142-12.289,21-24.236,32.271-35.507s23.218-22.129,35.507-32.271c12.32-10.167,25.27-19.851,38.492-28.784,13.286-8.976,27.156-17.4,41.225-25.045,14.17-7.7,28.875-14.781,43.707-21.055,14.97-6.332,30.426-11.989,45.938-16.814C367,17.6,383.124,13.455,399.233,10.158a501.259,501.259,0,0,1,49.645-7.577A507.991,507.991,0,0,1,500,0c11.767,0,23.655.413,35.331,1.228,11.559.807,23.223,2.029,34.668,3.633-15.023,2.105-30.12,4.931-44.873,8.4-14.577,3.428-29.169,7.567-43.369,12.3-14.06,4.688-28.081,10.075-41.673,16.011C426.605,47.461,413.22,54.031,400.3,61.1c-12.836,7.025-25.522,14.715-37.705,22.855-12.128,8.1-24.049,16.847-35.433,25.989a504.407,504.407,0,0,0-63.284,60.613c-9.613,10.966-18.854,22.487-27.467,34.24-8.643,11.8-16.861,24.111-24.427,36.607-7.607,12.564-14.739,25.612-21.2,38.782-6.5,13.267-12.484,26.982-17.772,40.764-5.336,13.909-10.1,28.226-14.157,42.555-4.1,14.484-7.583,29.34-10.35,44.155-2.8,15-4.937,30.325-6.351,45.562C140.727,468.667,140,484.405,140,500s.727,31.333,2.16,46.777c1.414,15.237,3.551,30.566,6.351,45.562,2.766,14.815,6.248,29.671,10.35,44.154,4.057,14.329,8.82,28.647,14.157,42.555,5.288,13.782,11.267,27.5,17.772,40.764,6.457,13.17,13.588,26.218,21.2,38.781,7.566,12.494,15.784,24.811,24.427,36.607,8.612,11.754,17.853,23.274,27.467,34.24a504.4,504.4,0,0,0,63.284,60.613c11.384,9.142,23.306,17.886,35.433,25.989,12.183,8.14,24.869,15.829,37.705,22.855,12.918,7.07,26.3,13.641,39.785,19.529,13.592,5.936,27.613,11.323,41.673,16.011,14.2,4.735,28.791,8.873,43.369,12.3,14.745,3.467,29.843,6.293,44.873,8.4-11.455,1.605-23.119,2.827-34.668,3.633C523.655,999.587,511.768,1000,500,1000Z" transform="translate(1237.017 1182.378) rotate(-158)" fill="#f3f0e2"/>
        <path id="Soustraction_2" data-name="Soustraction 2" d="M500,1000a507.987,507.987,0,0,1-51.122-2.582,501.26,501.26,0,0,1-49.645-7.577c-16.109-3.3-32.23-7.442-47.917-12.321-15.511-4.825-30.967-10.482-45.938-16.814-14.833-6.274-29.538-13.358-43.707-21.055-14.069-7.643-27.94-16.069-41.225-25.045-13.221-8.932-26.171-18.616-38.492-28.784-12.29-10.143-24.236-21-35.507-32.271s-22.129-23.218-32.271-35.507c-10.166-12.318-19.851-25.269-28.784-38.492-8.975-13.286-17.4-27.156-25.045-41.225-7.7-14.17-14.782-28.875-21.055-43.707C32.961,679.652,27.3,664.2,22.479,648.685,17.6,633,13.455,616.876,10.158,600.768a501.263,501.263,0,0,1-7.577-49.645,507.482,507.482,0,0,1,0-102.244,501.261,501.261,0,0,1,7.577-49.645c3.3-16.109,7.442-32.231,12.321-47.917C27.3,335.8,32.961,320.348,39.293,305.378c6.273-14.832,13.357-29.537,21.055-43.707,7.643-14.069,16.069-27.939,25.045-41.225,8.933-13.223,18.617-26.173,28.784-38.492,10.142-12.289,21-24.236,32.271-35.507s23.218-22.129,35.507-32.271c12.32-10.167,25.27-19.851,38.492-28.784,13.286-8.976,27.156-17.4,41.225-25.045,14.17-7.7,28.875-14.781,43.707-21.055,14.97-6.332,30.426-11.989,45.938-16.814C367,17.6,383.124,13.455,399.233,10.158a501.259,501.259,0,0,1,49.645-7.577A507.991,507.991,0,0,1,500,0c11.767,0,23.655.413,35.331,1.228,11.559.807,23.223,2.029,34.668,3.633-15.023,2.105-30.12,4.931-44.873,8.4-14.577,3.428-29.169,7.567-43.369,12.3-14.06,4.688-28.081,10.075-41.673,16.011C426.605,47.461,413.22,54.031,400.3,61.1c-12.836,7.025-25.522,14.715-37.705,22.855-12.128,8.1-24.049,16.847-35.433,25.989a504.407,504.407,0,0,0-63.284,60.613c-9.613,10.966-18.854,22.487-27.467,34.24-8.643,11.8-16.861,24.111-24.427,36.607-7.607,12.564-14.739,25.612-21.2,38.782-6.5,13.267-12.484,26.982-17.772,40.764-5.336,13.909-10.1,28.226-14.157,42.555-4.1,14.484-7.583,29.34-10.35,44.155-2.8,15-4.937,30.325-6.351,45.562C140.727,468.667,140,484.405,140,500s.727,31.333,2.16,46.777c1.414,15.237,3.551,30.566,6.351,45.562,2.766,14.815,6.248,29.671,10.35,44.154,4.057,14.329,8.82,28.647,14.157,42.555,5.288,13.782,11.267,27.5,17.772,40.764,6.457,13.17,13.588,26.218,21.2,38.781,7.566,12.494,15.784,24.811,24.427,36.607,8.612,11.754,17.853,23.274,27.467,34.24a504.4,504.4,0,0,0,63.284,60.613c11.384,9.142,23.306,17.886,35.433,25.989,12.183,8.14,24.869,15.829,37.705,22.855,12.918,7.07,26.3,13.641,39.785,19.529,13.592,5.936,27.613,11.323,41.673,16.011,14.2,4.735,28.791,8.873,43.369,12.3,14.745,3.467,29.843,6.293,44.873,8.4-11.455,1.605-23.119,2.827-34.668,3.633C523.655,999.587,511.768,1000,500,1000Z" transform="matrix(-0.391, -0.921, 0.921, -0.391, 695.452, 1187.992)" fill="#2f3a56"/>
        <path id="Soustraction_3" data-name="Soustraction 3" d="M500,1000a507.987,507.987,0,0,1-51.122-2.582,501.26,501.26,0,0,1-49.645-7.577c-16.109-3.3-32.23-7.442-47.917-12.321-15.511-4.825-30.967-10.482-45.938-16.814-14.833-6.274-29.538-13.358-43.707-21.055-14.069-7.643-27.94-16.069-41.225-25.045-13.221-8.932-26.171-18.616-38.492-28.784-12.29-10.143-24.236-21-35.507-32.271s-22.129-23.218-32.271-35.507c-10.166-12.318-19.851-25.269-28.784-38.492-8.975-13.286-17.4-27.156-25.045-41.225-7.7-14.17-14.782-28.875-21.055-43.707C32.961,679.652,27.3,664.2,22.479,648.685,17.6,633,13.455,616.876,10.158,600.768a501.263,501.263,0,0,1-7.577-49.645,507.482,507.482,0,0,1,0-102.244,501.261,501.261,0,0,1,7.577-49.645c3.3-16.109,7.442-32.231,12.321-47.917C27.3,335.8,32.961,320.348,39.293,305.378c6.273-14.832,13.357-29.537,21.055-43.707,7.643-14.069,16.069-27.939,25.045-41.225,8.933-13.223,18.617-26.173,28.784-38.492,10.142-12.289,21-24.236,32.271-35.507s23.218-22.129,35.507-32.271c12.32-10.167,25.27-19.851,38.492-28.784,13.286-8.976,27.156-17.4,41.225-25.045,14.17-7.7,28.875-14.781,43.707-21.055,14.97-6.332,30.426-11.989,45.938-16.814C367,17.6,383.124,13.455,399.233,10.158a501.259,501.259,0,0,1,49.645-7.577A507.991,507.991,0,0,1,500,0c11.767,0,23.655.413,35.331,1.228,11.559.807,23.223,2.029,34.668,3.633-15.023,2.105-30.12,4.931-44.873,8.4-14.577,3.428-29.169,7.567-43.369,12.3-14.06,4.688-28.081,10.075-41.673,16.011C426.605,47.461,413.22,54.031,400.3,61.1c-12.836,7.025-25.522,14.715-37.705,22.855-12.128,8.1-24.049,16.847-35.433,25.989a504.407,504.407,0,0,0-63.284,60.613c-9.613,10.966-18.854,22.487-27.467,34.24-8.643,11.8-16.861,24.111-24.427,36.607-7.607,12.564-14.739,25.612-21.2,38.782-6.5,13.267-12.484,26.982-17.772,40.764-5.336,13.909-10.1,28.226-14.157,42.555-4.1,14.484-7.583,29.34-10.35,44.155-2.8,15-4.937,30.325-6.351,45.562C140.727,468.667,140,484.405,140,500s.727,31.333,2.16,46.777c1.414,15.237,3.551,30.566,6.351,45.562,2.766,14.815,6.248,29.671,10.35,44.154,4.057,14.329,8.82,28.647,14.157,42.555,5.288,13.782,11.267,27.5,17.772,40.764,6.457,13.17,13.588,26.218,21.2,38.781,7.566,12.494,15.784,24.811,24.427,36.607,8.612,11.754,17.853,23.274,27.467,34.24a504.4,504.4,0,0,0,63.284,60.613c11.384,9.142,23.306,17.886,35.433,25.989,12.183,8.14,24.869,15.829,37.705,22.855,12.918,7.07,26.3,13.641,39.785,19.529,13.592,5.936,27.613,11.323,41.673,16.011,14.2,4.735,28.791,8.873,43.369,12.3,14.745,3.467,29.843,6.293,44.873,8.4-11.455,1.605-23.119,2.827-34.668,3.633C523.655,999.587,511.768,1000,500,1000Z" transform="translate(309.833 807.772) rotate(-68)" fill="#f3f0e2"/>
        <path id="Soustraction_4" data-name="Soustraction 4" d="M500,1000a507.987,507.987,0,0,1-51.122-2.582,501.26,501.26,0,0,1-49.645-7.577c-16.109-3.3-32.23-7.442-47.917-12.321-15.511-4.825-30.967-10.482-45.938-16.814-14.833-6.274-29.538-13.358-43.707-21.055-14.069-7.643-27.94-16.069-41.225-25.045-13.221-8.932-26.171-18.616-38.492-28.784-12.29-10.143-24.236-21-35.507-32.271s-22.129-23.218-32.271-35.507c-10.166-12.318-19.851-25.269-28.784-38.492-8.975-13.286-17.4-27.156-25.045-41.225-7.7-14.17-14.782-28.875-21.055-43.707C32.961,679.652,27.3,664.2,22.479,648.685,17.6,633,13.455,616.876,10.158,600.768a501.263,501.263,0,0,1-7.577-49.645,507.482,507.482,0,0,1,0-102.244,501.261,501.261,0,0,1,7.577-49.645c3.3-16.109,7.442-32.231,12.321-47.917C27.3,335.8,32.961,320.348,39.293,305.378c6.273-14.832,13.357-29.537,21.055-43.707,7.643-14.069,16.069-27.939,25.045-41.225,8.933-13.223,18.617-26.173,28.784-38.492,10.142-12.289,21-24.236,32.271-35.507s23.218-22.129,35.507-32.271c12.32-10.167,25.27-19.851,38.492-28.784,13.286-8.976,27.156-17.4,41.225-25.045,14.17-7.7,28.875-14.781,43.707-21.055,14.97-6.332,30.426-11.989,45.938-16.814C367,17.6,383.124,13.455,399.233,10.158a501.259,501.259,0,0,1,49.645-7.577A507.991,507.991,0,0,1,500,0c11.767,0,23.655.413,35.331,1.228,11.559.807,23.223,2.029,34.668,3.633-15.023,2.105-30.12,4.931-44.873,8.4-14.577,3.428-29.169,7.567-43.369,12.3-14.06,4.688-28.081,10.075-41.673,16.011C426.605,47.461,413.22,54.031,400.3,61.1c-12.836,7.025-25.522,14.715-37.705,22.855-12.128,8.1-24.049,16.847-35.433,25.989a504.407,504.407,0,0,0-63.284,60.613c-9.613,10.966-18.854,22.487-27.467,34.24-8.643,11.8-16.861,24.111-24.427,36.607-7.607,12.564-14.739,25.612-21.2,38.782-6.5,13.267-12.484,26.982-17.772,40.764-5.336,13.909-10.1,28.226-14.157,42.555-4.1,14.484-7.583,29.34-10.35,44.155-2.8,15-4.937,30.325-6.351,45.562C140.727,468.667,140,484.405,140,500s.727,31.333,2.16,46.777c1.414,15.237,3.551,30.566,6.351,45.562,2.766,14.815,6.248,29.671,10.35,44.154,4.057,14.329,8.82,28.647,14.157,42.555,5.288,13.782,11.267,27.5,17.772,40.764,6.457,13.17,13.588,26.218,21.2,38.781,7.566,12.494,15.784,24.811,24.427,36.607,8.612,11.754,17.853,23.274,27.467,34.24a504.4,504.4,0,0,0,63.284,60.613c11.384,9.142,23.306,17.886,35.433,25.989,12.183,8.14,24.869,15.829,37.705,22.855,12.918,7.07,26.3,13.641,39.785,19.529,13.592,5.936,27.613,11.323,41.673,16.011,14.2,4.735,28.791,8.873,43.369,12.3,14.745,3.467,29.843,6.293,44.873,8.4-11.455,1.605-23.119,2.827-34.668,3.633C523.655,999.587,511.768,1000,500,1000Z" transform="matrix(0.921, -0.391, 0.391, 0.921, 303.471, 268.061)" fill="#2f3a56"/>
        <path id="Union_2" data-name="Union 2" d="M462.521,351.625l54.23-54.229-96.744-96.744.017-.017L367,147.611,521.611-7l53.34,53.34-.084.084,43.181,43.182L671.2,36.457l53.331,53.33L617.9,196.42l-53.331-53.331.2-.2L521.586,99.706l-47.98,47.98L623.615,297.7l-53.282,53.282-.251-.251-54.229,54.229Z" transform="translate(464.105 285.934)" fill="#f3f0e2"/>
        <rect id="Rectangle_6" data-name="Rectangle 6" width="150.8" height="75.421" transform="translate(891.53 576.228) rotate(135)" fill="#f3f0e2"/>
      </g>
    </g>
  </g>
</svg>
